<?xml version="1.0" standalone="no"?>
<svg xmlns:xlink="http://www.w3.org/1999/xlink" id="wave" style="transform:rotate(0deg); transition: 0.3s" viewBox="0 0 1440 490" version="1.1" xmlns="http://www.w3.org/2000/svg"><defs><linearGradient id="sw-gradient-0" x1="0" x2="0" y1="1" y2="0"><stop stop-color="rgba(0, 0, 0, 1)" offset="0%"/><stop stop-color="rgba(0, 0, 0, 1)" offset="100%"/></linearGradient></defs><path style="transform:translate(0, 0px); opacity:1" fill="url(#sw-gradient-0)" d="M0,343L60,310.3C120,278,240,212,360,179.7C480,147,600,147,720,155.2C840,163,960,180,1080,155.2C1200,131,1320,65,1440,81.7C1560,98,1680,196,1800,204.2C1920,212,2040,131,2160,130.7C2280,131,2400,212,2520,236.8C2640,261,2760,229,2880,253.2C3000,278,3120,359,3240,326.7C3360,294,3480,147,3600,98C3720,49,3840,98,3960,155.2C4080,212,4200,278,4320,294C4440,310,4560,278,4680,228.7C4800,180,4920,114,5040,98C5160,82,5280,114,5400,163.3C5520,212,5640,278,5760,261.3C5880,245,6000,147,6120,122.5C6240,98,6360,147,6480,179.7C6600,212,6720,229,6840,261.3C6960,294,7080,343,7200,343C7320,343,7440,294,7560,294C7680,294,7800,343,7920,318.5C8040,294,8160,196,8280,179.7C8400,163,8520,229,8580,261.3L8640,294L8640,490L8580,490C8520,490,8400,490,8280,490C8160,490,8040,490,7920,490C7800,490,7680,490,7560,490C7440,490,7320,490,7200,490C7080,490,6960,490,6840,490C6720,490,6600,490,6480,490C6360,490,6240,490,6120,490C6000,490,5880,490,5760,490C5640,490,5520,490,5400,490C5280,490,5160,490,5040,490C4920,490,4800,490,4680,490C4560,490,4440,490,4320,490C4200,490,4080,490,3960,490C3840,490,3720,490,3600,490C3480,490,3360,490,3240,490C3120,490,3000,490,2880,490C2760,490,2640,490,2520,490C2400,490,2280,490,2160,490C2040,490,1920,490,1800,490C1680,490,1560,490,1440,490C1320,490,1200,490,1080,490C960,490,840,490,720,490C600,490,480,490,360,490C240,490,120,490,60,490L0,490Z"/></svg>